<svg width="34" height="27" fill="none" xmlns="http://www.w3.org/2000/svg"><path fill-rule="evenodd" clip-rule="evenodd" d="M17.885 14.957c-.41-.54-.615-.81-.866-.906a.948.948 0 0 0-.682 0c-.25.097-.456.367-.866.906L8.521 24.1c-.595.782-.892 1.173-.887 1.501a.948.948 0 0 0 .362.73c.258.202.75.202 1.732.202h13.9c.983 0 1.474 0 1.732-.202a.948.948 0 0 0 .362-.73c.005-.328-.292-.719-.887-1.501l-6.95-9.143Zm-4.543-13.44c0-.532 0-.797.104-1a.948.948 0 0 1 .414-.414C14.063 0 14.328 0 14.859 0h3.639c.53 0 .796 0 .998.103.179.091.324.236.415.414.103.203.103.468.103 1V8.51l5.034-4.967c.373-.368.56-.552.774-.621a.948.948 0 0 1 .581 0c.215.069.401.253.775.621l2.558 2.524c.383.378.574.566.645.785a.948.948 0 0 1 0 .59c-.071.218-.262.407-.645.784l-5.005 4.938h7.11c.53 0 .795 0 .998.103.178.091.323.236.414.415.103.202.103.468.103.998v3.55c0 .53 0 .796-.103.999a.948.948 0 0 1-.414.414c-.203.103-.468.103-.999.103H1.516c-.53 0-.796 0-.999-.103a.947.947 0 0 1-.414-.414C0 19.026 0 18.76 0 18.229V14.68c0-.53 0-.796.103-.998a.947.947 0 0 1 .414-.415c.203-.103.468-.103 1-.103h7.108L3.62 8.226c-.382-.377-.573-.566-.645-.784a.948.948 0 0 1 0-.59c.072-.218.263-.407.645-.784L6.18 3.543c.373-.368.56-.552.774-.621a.948.948 0 0 1 .581 0c.215.069.401.253.774.621l5.034 4.967V1.516Z" fill="#506CF7"/></svg>