<svg width="24" height="25" viewBox="0 0 24 25" fill="none" xmlns="http://www.w3.org/2000/svg">
<path d="M8.29 20.4934C15.837 20.4934 19.965 14.2404 19.965 8.81839C19.965 8.64039 19.965 8.46339 19.953 8.28839C20.7562 7.70692 21.4493 6.987 22 6.16239C21.2511 6.49439 20.4566 6.71215 19.643 6.80839C20.4996 6.29545 21.1408 5.48874 21.447 4.53839C20.6417 5.01628 19.7607 5.35312 18.842 5.53439C18.2234 4.87615 17.405 4.44022 16.5136 4.29409C15.6222 4.14796 14.7075 4.29979 13.9111 4.72606C13.1147 5.15233 12.4811 5.82926 12.1083 6.65205C11.7355 7.47484 11.6444 8.39757 11.849 9.27739C10.2176 9.19563 8.6216 8.77171 7.16465 8.03316C5.70769 7.2946 4.42233 6.25791 3.392 4.99039C2.86732 5.89359 2.70659 6.96281 2.94254 7.98035C3.17848 8.9979 3.79337 9.88727 4.662 10.4674C4.00926 10.4485 3.37063 10.2729 2.8 9.95539V10.0074C2.80039 10.9547 3.1284 11.8727 3.7284 12.6057C4.3284 13.3388 5.16347 13.8418 6.092 14.0294C5.48781 14.1941 4.85389 14.2181 4.239 14.0994C4.50116 14.9149 5.01168 15.628 5.69913 16.139C6.38658 16.65 7.21657 16.9334 8.073 16.9494C7.22212 17.618 6.24779 18.1122 5.20573 18.4039C4.16367 18.6956 3.07432 18.779 2 18.6494C3.8766 19.8537 6.06019 20.4925 8.29 20.4894" fill="#9CA3AF"/>
</svg>
